<svg width="18" height="17" viewBox="0 0 18 17" fill="none" xmlns="http://www.w3.org/2000/svg">
<path fill-rule="evenodd" clip-rule="evenodd" d="M9.1043 0.186768C4.5043 0.186768 0.779297 3.9201 0.779297 8.5201C0.779297 13.1201 4.5043 16.8534 9.1043 16.8534C13.7126 16.8534 17.446 13.1201 17.446 8.5201C17.446 3.9201 13.7126 0.186768 9.1043 0.186768ZM9.11279 15.1868C5.42946 15.1868 2.44613 12.2034 2.44613 8.5201C2.44613 4.83677 5.42946 1.85343 9.11279 1.85343C12.7961 1.85343 15.7795 4.83677 15.7795 8.5201C15.7795 12.2034 12.7961 15.1868 9.11279 15.1868ZM8.2793 4.35343H9.5293V8.72843L13.2793 10.9534L12.6543 11.9784L8.2793 9.35343V4.35343Z" fill="#2F80ED"/>
</svg>
