<svg width="68" height="68" viewBox="0 0 68 68" fill="none" xmlns="http://www.w3.org/2000/svg">
<path d="M68 34C68 52.7777 52.7777 68 34 68C15.2223 68 0 52.7777 0 34C0 15.2223 15.2223 0 34 0C52.7777 0 68 15.2223 68 34Z" fill="#8785FF"/>
<path fill-rule="evenodd" clip-rule="evenodd" d="M38.6296 24H22.2593C21.5667 24 21 24.5667 21 25.2593V42.8889L26.037 37.8519H38.6296C39.3222 37.8519 39.8889 37.2852 39.8889 36.5926V25.2593C39.8889 24.5667 39.3222 24 38.6296 24ZM37.3704 26.5184V35.3332H24.9919L24.2489 36.0762L23.5185 36.8066V26.5184H37.3704ZM42.4074 29.0371H44.9259C45.6185 29.0371 46.1852 29.6037 46.1852 30.2963V49.1852L41.1481 44.1482H27.2963C26.6037 44.1482 26.037 43.5815 26.037 42.8889V40.3704H42.4074V29.0371Z" fill="white"/>
</svg>
