<svg width="60" height="60" viewBox="0 0 60 60" fill="none" xmlns="http://www.w3.org/2000/svg">
<path d="M60 30C60 46.5685 46.5685 60 30 60C13.4315 60 0 46.5685 0 30C0 13.4315 13.4315 0 30 0C46.5685 0 60 13.4315 60 30Z" fill="#F2F2F2"/>
<path fill-rule="evenodd" clip-rule="evenodd" d="M34.4443 21.1106H19.9998C19.3887 21.1106 18.8887 21.6106 18.8887 22.2217V37.7773L23.3332 33.3329H34.4443C35.0554 33.3329 35.5554 32.8329 35.5554 32.2217V22.2217C35.5554 21.6106 35.0554 21.1106 34.4443 21.1106ZM33.3332 23.3328V31.1106H22.411L21.111 32.4106V23.3328H33.3332ZM37.7776 25.5551H39.9998C40.611 25.5551 41.111 26.0551 41.111 26.6662V43.3329L36.6665 38.8884H24.4443C23.8332 38.8884 23.3332 38.3884 23.3332 37.7773V35.5551H37.7776V25.5551Z" fill="#8885FF"/>
</svg>
