<svg width="60" height="60" viewBox="0 0 60 60" fill="none" xmlns="http://www.w3.org/2000/svg">
<path d="M60 30C60 46.5685 46.5685 60 30 60C13.4315 60 0 46.5685 0 30C0 13.4315 13.4315 0 30 0C46.5685 0 60 13.4315 60 30Z" fill="#F2F2F2"/>
<path fill-rule="evenodd" clip-rule="evenodd" d="M21.1112 21.6667H41.1112C42.3334 21.6667 43.3334 22.6667 43.3334 23.8889V38.3333C43.3334 39.5556 42.3334 40.5556 41.1112 40.5556H21.1112C19.8889 40.5556 18.8889 39.5556 18.8889 38.3333V23.8889C18.8889 22.6667 19.8889 21.6667 21.1112 21.6667ZM21.1112 23.8889V38.3333H30.0001V23.8889H21.1112ZM41.1112 38.3333H32.2223V23.8889H41.1112V38.3333ZM40.0001 27.7778H33.3334V29.4444H40.0001V27.7778ZM33.3334 30.5556H40.0001V32.2222H33.3334V30.5556ZM40.0001 33.3333H33.3334V35H40.0001V33.3333Z" fill="#F8B76B"/>
</svg>
